# xmcd CD database file
#
# Track frame offsets:
#	150
#	17524
#	43236
#	66353
#	83488
#	99807
#	118863
#	135695
#	150777
#	160199
#	176151
#	193211
#	215138
#	235958
#	256230
#	276273
#	298529
#	313836
#
# Disc length: 4584 seconds
#
# Revision: 0
# Processed by: cddbd v1.4PL0 Copyright (c) Steve Scherf et al.
# Submitted via: CDex 1.50Beta4
#
DISCID=0211e612
DTITLE=Reed, Lou - From George
DYEAR=2002
DGENRE=Blues
TTITLE0=My Friend George
TTITLE1=New Sensations
TTITLE2=Ocean
TTITLE3=Perfect Day
TTITLE4=Hangin' Round
TTITLE5=Walk on the Wild Side
TTITLE6=Satellite of Love
TTITLE7=Wagon Wheel
TTITLE8=Small Town
TTITLE9=Dirty Boulevarde
TTITLE10=There is No Time
TTITLE11=Busload of Faith
TTITLE12=Good Evening Mr Waldhiem
TTITLE13=Paranoia Key of E
TTITLE14=Ecstasy
TTITLE15=Baton Rouge
TTITLE16=What's Good
TTITLE17=Magic and Loss
EXTD=YEAR: 2002
EXTT0=
EXTT1=
EXTT2=
EXTT3=
EXTT4=
EXTT5=
EXTT6=
EXTT7=
EXTT8=
EXTT9=
EXTT10=
EXTT11=
EXTT12=
EXTT13=
EXTT14=
EXTT15=
EXTT16=
EXTT17=
PLAYORDER=
